<?xml version="1.0" standalone="no"?>
<!DOCTYPE svg PUBLIC "-//W3C//DTD SVG 20010904//EN"
 "http://www.w3.org/TR/2001/REC-SVG-20010904/DTD/svg10.dtd">
<svg version="1.0" xmlns="http://www.w3.org/2000/svg"
 width="55.000000pt" height="37.000000pt" viewBox="0 0 55.000000 37.000000"
 preserveAspectRatio="xMidYMid meet">
<metadata>
Created by potrace 1.15, written by Peter Selinger 2001-2017
</metadata>
<g transform="translate(0.000000,37.000000) scale(0.100000,-0.100000)"
fill="#000000" stroke="none">
<path d="M0 185 l0 -185 275 0 275 0 0 185 0 185 -275 0 -275 0 0 -185z m455
120 c14 -13 25 -35 25 -48 0 -46 -12 -87 -26 -87 -16 0 -19 26 -4 35 12 7 4
25 -11 25 -5 0 -9 -7 -9 -15 0 -17 -14 -19 -40 -5 -33 18 -33 -18 0 -58 16
-20 30 -40 30 -44 0 -5 -15 -8 -33 -8 -23 0 -41 8 -57 25 -30 32 -50 32 -50 0
0 -22 -4 -25 -35 -25 -45 0 -95 44 -129 112 -34 68 -33 78 7 78 29 -1 34 -6
55 -50 13 -28 28 -50 33 -50 12 0 12 67 -1 75 -22 13 -8 25 30 25 l40 0 0 -47
1 -48 23 27 c13 15 26 26 28 25 2 -1 -5 4 -14 12 -26 20 -22 34 15 53 48 25
93 23 122 -7z"/>
</g>
</svg>
